<svg xmlns="http://www.w3.org/2000/svg" viewBox="0 0 32 40" fill="none" x="0px" y="0px"><path fill-rule="evenodd" clip-rule="evenodd" d="M16 7C16.5523 7 17 7.44772 17 8V16.5323L19.2821 14.1789C19.6666 13.7824 20.2997 13.7726 20.6961 14.1571C21.0926 14.5416 21.1024 15.1747 20.7179 15.5711L16.7179 19.6961C16.5296 19.8904 16.2706 20 16 20C15.7294 20 15.4704 19.8904 15.2821 19.6961L11.2821 15.5711C10.8976 15.1747 10.9074 14.5416 11.3039 14.1571C11.7003 13.7726 12.3334 13.7824 12.7179 14.1789L15 16.5323V8C15 7.44772 15.4477 7 16 7ZM9 19.5C9.55228 19.5 10 19.9477 10 20.5V21C10 21.5523 10.4477 22 11 22H21C21.5523 22 22 21.5523 22 21V20.5C22 19.9477 22.4477 19.5 23 19.5C23.5523 19.5 24 19.9477 24 20.5V21C24 22.6569 22.6569 24 21 24H11C9.34315 24 8 22.6569 8 21V20.5C8 19.9477 8.44772 19.5 9 19.5Z" fill="black"/><text x="0" y="47" fill="#000000" font-size="5px" font-weight="bold" font-family="'Helvetica Neue', Helvetica, Arial-Unicode, Arial, Sans-serif">Created by Anarappi</text><text x="0" y="52" fill="#000000" font-size="5px" font-weight="bold" font-family="'Helvetica Neue', Helvetica, Arial-Unicode, Arial, Sans-serif">from the Noun Project</text></svg>